# xmcd
#
# Track frame offsets:
#	150
#	17425
#	34140
#	49257
#	67180
#	86945
#	102995
#	124350
#	144012
#	163335
#	182347
#
# Disc length: 2658 seconds
#
# Revision: 1
# Processed by: cddbd v1.5.2PL0 Copyright (c) Steve Scherf et al.
# Submitted via: EZCDAudioConverter 2.4.0.1
#
DISCID=970a600b
DTITLE=Chitãozinho and Xororó - (Sertanejo) Chitãozinho and Xororó
DYEAR=1987
DGENRE=Sertanejo
TTITLE0=Meu Disfarce
TTITLE1=Fogão de Lenha
TTITLE2=Pé na Estrada
TTITLE3=Contratempos
TTITLE4=Que Mundo É Esse
TTITLE5=Coração
TTITLE6=Falando às Paredes
TTITLE7=A Colheita
TTITLE8=A Mais Bonita das Noites
TTITLE9=Eu Te Encontrei
TTITLE10=Nossas Divergências
EXTD=
EXTT0=
EXTT1=
EXTT2=
EXTT3=
EXTT4=
EXTT5=
EXTT6=
EXTT7=
EXTT8=
EXTT9=
EXTT10=
PLAYORDER=
